<svg width="61" height="76" viewBox="0 0 61 76" fill="none" xmlns="http://www.w3.org/2000/svg">
<path d="M34.4146 4C34.4146 1.83748 32.6615 0.0844089 30.499 0.084409C28.3365 0.0844091 26.5834 1.83748 26.5834 4L34.4146 4ZM27.7303 69.4182C29.2594 70.9473 31.7386 70.9473 33.2678 69.4182L58.1864 44.4995C59.7156 42.9704 59.7156 40.4912 58.1864 38.962C56.6573 37.4329 54.1781 37.4329 52.649 38.962L30.499 61.112L8.3491 38.9621C6.81996 37.4329 4.34075 37.4329 2.81162 38.9621C1.28248 40.4912 1.28248 42.9704 2.81162 44.4995L27.7303 69.4182ZM26.5834 4L26.5834 66.6495L34.4146 66.6495L34.4146 4L26.5834 4Z" fill="black"/>
<path d="M4 71.8711L57 71.8711" stroke="black" stroke-width="7.83118" stroke-linecap="round"/>
</svg>
